<svg width="207" height="206" viewBox="0 0 207 206" fill="none" xmlns="http://www.w3.org/2000/svg">
<g clip-path="url(#clip0_10_70)">
<path d="M207 0H0V206H207V0Z" fill="#1A73E8"/>
<path d="M40.0955 33.5449C40.0905 33.5449 40.085 33.5449 40.0801 33.5449C38.3521 33.5449 36.7268 34.2153 35.4995 35.4336C34.2587 36.6653 33.5752 38.3054 33.5752 40.0514V137.615C33.5752 141.193 36.5115 144.111 40.1213 144.12C55.3395 144.156 80.8361 147.312 98.4251 165.63V63.527C98.4251 62.3142 98.1139 61.1749 97.5264 60.2321C83.0901 37.0957 55.3481 33.5804 40.0955 33.5449Z" fill="white"/>
<path d="M173.425 137.615V40.0508C173.425 38.3048 172.742 36.6647 171.501 35.433C170.274 34.2147 168.647 33.5443 166.921 33.5443C166.916 33.5443 166.91 33.5443 166.905 33.5443C151.653 33.5804 123.911 37.0957 109.474 60.2321C108.887 61.1749 108.576 62.3142 108.576 63.527V165.63C126.165 147.312 151.662 144.155 166.88 144.119C170.489 144.11 173.425 141.192 173.425 137.615Z" fill="white"/>
<path d="M188.316 56.0447H183.576V137.615C183.576 146.75 176.097 154.199 166.904 154.221C153.996 154.252 132.712 156.764 117.638 170.961C143.708 164.609 171.19 168.738 186.853 172.29C188.808 172.734 190.829 172.276 192.396 171.033C193.958 169.793 194.853 167.94 194.853 165.951V62.5499C194.854 58.9631 191.921 56.0447 188.316 56.0447Z" fill="white"/>
<path d="M23.4242 137.615V56.0447H18.6837C15.08 56.0447 12.1468 58.9631 12.1468 62.55V165.949C12.1468 167.939 13.0425 169.791 14.6038 171.031C16.1695 172.273 18.1885 172.733 20.1472 172.289C35.8095 168.736 63.2925 164.607 89.3611 170.96C74.2881 156.763 53.0043 154.251 40.0961 154.221C30.9035 154.199 23.4242 146.75 23.4242 137.615Z" fill="white"/>
</g>
<defs>
<clipPath id="clip0_10_70">
<rect width="207" height="206" fill="white"/>
</clipPath>
</defs>
</svg>
